<?xml version="1.0" encoding="utf-8"?>
<!-- Generator: Adobe Illustrator 16.0.0, SVG Export Plug-In . SVG Version: 6.00 Build 0)  -->
<!DOCTYPE svg PUBLIC "-//W3C//DTD SVG 1.1//EN" "http://www.w3.org/Graphics/SVG/1.1/DTD/svg11.dtd">
<svg version="1.1" id="Layer_1" xmlns="http://www.w3.org/2000/svg" xmlns:xlink="http://www.w3.org/1999/xlink" x="0px" y="0px"
	 width="518.992px" height="132.105px" viewBox="0 0 518.992 132.105" enable-background="new 0 0 518.992 132.105"
	 xml:space="preserve">
<g>
	<path fill="#ED5A5A" d="M114.605,50.993c-0.233-1.068-0.408-2.167-0.802-3.213c-0.709-2.114-1.317-4.322-2.337-6.411
		c-0.476-1.057-0.917-2.145-1.438-3.204c-0.59-1.021-1.185-2.052-1.785-3.091l-0.907-1.563c-0.31-0.52-0.707-1.01-1.06-1.52
		c-0.732-1.009-1.469-2.025-2.21-3.048c-0.745-1.029-1.56-1.813-2.344-2.738l-1.193-1.347l-0.599-0.675
		c0.059,0.061-0.163-0.179-0.173-0.185l-0.087-0.08l-0.174-0.162l-0.349-0.321c-1.894-1.687-3.717-3.51-5.881-4.963
		c-4.098-3.203-8.876-5.661-13.89-7.605c-1.277-0.431-2.56-0.862-3.847-1.296c-0.757-0.246-1.536-0.427-2.317-0.603
		c-0.37-0.1-0.735-0.197-1.107-0.296c-0.58-0.155-1.162-0.309-1.747-0.465c-0.587-0.148-1.215-0.214-1.825-0.325
		c-1.231-0.196-2.47-0.394-3.719-0.592c-1.253-0.201-2.383-0.178-3.594-0.279l-1.795-0.108l-0.902-0.053
		c0.085,0.001-0.241-0.013-0.251-0.008l-0.119,0.004l-0.237,0.01l-0.475,0.019c-2.532,0.146-5.11,0.147-7.668,0.649
		c-5.162,0.633-10.278,2.274-15.199,4.443c-1.208,0.599-2.419,1.2-3.636,1.803c-1.208,0.618-2.327,1.408-3.498,2.109L25.7,16.966
		c-0.556,0.4-1.093,0.827-1.642,1.242c-1.08,0.85-2.214,1.64-3.253,2.549c-4.186,3.621-7.861,7.885-10.975,12.563
		c-3.041,4.741-5.299,9.978-6.885,15.405L2.01,52.867l-0.229,1.034L1.649,54.97l-0.26,2.135c-0.178,1.424-0.371,2.848-0.339,4.203
		l-0.08,4.118l0.322,4.276c0.053,1.404,0.326,2.783,0.581,4.162l0.372,2.065l0.187,1.03l0.228,0.808l0.139,0.667
		c0.296,1.298,0.493,2.623,0.873,3.894c0.396,1.267,0.792,2.529,1.185,3.786c1.83,4.955,4.034,9.666,7.134,13.883
		c1.437,2.256,3.083,3.988,4.643,5.857l0.297,0.342l0.149,0.17l0.075,0.086c0.007,0.014,0.196,0.203,0.157,0.16l0.683,0.641
		l1.363,1.277c0.924,0.826,1.769,1.738,2.747,2.479c7.661,6.148,16.481,9.919,24.893,11.332c1.291,0.173,2.561,0.324,3.82,0.455
		c2.274,0.418,4.405,0.509,6.557,0.702l0.452,0.031l0.226,0.017l0.113,0.007c0.014,0.004,0.281,0.005,0.224,0.001l0.937-0.028
		l1.866-0.062c1.239-0.069,2.481-0.021,3.696-0.19c9.765-1.067,18.668-4.639,25.616-9.588c1.694-1.294,3.351-2.571,4.868-3.923
		c0.723-0.716,1.438-1.422,2.145-2.121c0.691-0.711,1.435-1.348,2.025-2.119c0.618-0.74,1.228-1.473,1.83-2.193
		c0.226-0.274,0.306-0.64,0.213-0.983c-0.092-0.343-0.344-0.621-0.676-0.745c-0.068-0.026-0.137-0.052-0.205-0.079
		c-0.693-0.27-1.482-0.102-2.005,0.428c-2.981,3.018-6.463,5.878-10.449,8.369c-6.76,4.151-14.866,7.338-23.863,8.509
		c-1.117,0.199-2.264,0.187-3.408,0.294l-1.727,0.121l-0.868,0.061c-0.132-0.001,0.06,0.012-0.002,0.008l-0.113-0.004l-0.226-0.008
		l-0.454-0.015c-2.347-0.082-4.815,0.005-7.038-0.354c-0.917-0.165-1.839-0.351-2.765-0.564c-7.715-1.846-15.7-5.324-22.891-10.858
		c-0.93-0.647-1.733-1.469-2.617-2.201l-1.307-1.135l-0.657-0.57c-0.093-0.096,0.034,0.049-0.007,0.003l-0.078-0.083l-0.154-0.164
		l-0.31-0.332c-1.64-1.761-3.504-3.481-4.829-5.356c-3.03-3.589-5.473-7.991-7.513-12.542c-0.456-1.173-0.914-2.35-1.374-3.53
		c-0.447-1.188-0.715-2.438-1.086-3.665l-0.252-0.896C4.03,73.217,3.75,69.321,3.761,65.567l0.336-4.105
		c0.076-0.674,0.068-1.392,0.213-2.028l0.366-1.939l0.361-1.93l0.177-0.963l0.278-0.956l1.111-3.812
		c0.408-1.255,0.952-2.462,1.416-3.691c0.251-0.606,0.46-1.231,0.743-1.823l0.901-1.75l0.885-1.749
		c0.281-0.591,0.586-1.167,0.956-1.705l2.083-3.298c3.019-4.216,6.457-8.073,10.377-11.295c0.97-0.811,2.031-1.505,3.034-2.26
		c0.51-0.367,1.009-0.749,1.524-1.103l1.616-0.952c1.086-0.612,2.117-1.315,3.232-1.85c1.12-0.522,2.237-1.043,3.348-1.561
		c4.537-1.817,9.151-3.332,13.842-3.884c2.317-0.465,4.663-0.425,6.959-0.582l0.431-0.027l0.078-0.014L58,12.285v-0.001l1.014,0.036
		l1.866,0.074l1.82,0.072c0.59,0.027,1.219,0.027,1.74,0.132c1.084,0.157,2.169,0.314,3.237,0.468
		c0.536,0.087,1.073,0.124,1.606,0.249l1.601,0.396c0.594,0.146,1.181,0.289,1.77,0.434c0.454,0.12,0.909,0.237,1.35,0.391
		c1.161,0.422,2.319,0.844,3.471,1.264c4.493,1.924,8.827,4.114,12.534,7.042c1.968,1.31,3.598,2.996,5.333,4.508l0.324,0.287
		l0.162,0.142l0.08,0.071l0.596,0.646l1.219,1.322l1.211,1.314c0.398,0.438,0.832,0.87,1.125,1.312
		c0.656,0.877,1.307,1.75,1.953,2.614c0.317,0.441,0.668,0.844,0.956,1.31l0.85,1.408c0.566,0.934,1.128,1.862,1.686,2.783
		c0.476,0.966,0.947,1.924,1.414,2.874c1.912,3.795,3.09,7.75,4.132,11.57c1.571,6.621,1.831,13.056,1.228,18.839
		c-0.067,0.647,0.298,1.263,0.898,1.513c0.012,0.005,0.024,0.011,0.037,0.016c0.306,0.128,0.653,0.113,0.947-0.042
		c0.293-0.155,0.502-0.433,0.569-0.758c1.245-6.045,1.731-12.999,0.539-20.403C115.048,53.12,114.827,52.062,114.605,50.993z"/>
	<g>
		<path fill="#ED5A5A" d="M40.881,89.997c-4.821,4.255-8.599,6.384-11.336,6.384c-2.738,0-4.634-1.414-5.694-4.239
			c-0.389-0.987-0.582-1.906-0.582-2.754c0-2.295,0.361-4.521,1.085-6.675c0.724-2.152,1.439-4.165,2.145-6.039l4.662-12.024
			c1.802-4.908,2.896-8.333,3.285-10.276c0.388-1.942,0.334-3.258-0.16-3.946c-0.495-0.689-1.069-1.289-1.722-1.802
			c-0.653-0.511-1.271-0.971-1.854-1.377c-0.582-0.405-0.874-0.918-0.874-1.536s0.255-1.208,0.769-1.774
			c0.511-0.565,1.191-1.059,2.039-1.483c1.694-0.812,3.452-1.218,5.271-1.218c1.819,0,3.25,0.185,4.292,0.556
			c1.042,0.371,1.897,0.84,2.569,1.403c1.306,1.167,1.959,2.569,1.959,4.211c0,1.643-0.273,3.489-0.82,5.536
			c-0.548,2.048-1.236,4.22-2.066,6.515c-0.83,2.295-1.757,4.68-2.781,7.152l-2.913,7.309c-2.296,5.898-3.69,10.313-4.185,13.242
			c3.319-1.129,7.716-5.19,13.19-12.184c5.967-7.662,11.248-16.401,15.838-26.22c0.531-1.236,1.184-2.03,1.96-2.383
			c1.272-0.601,2.878-0.866,4.821-0.795c3.072,0.105,4.661,1.059,4.767,2.861c0.07,1.094-0.222,2.303-0.875,3.628
			c-0.653,1.323-1.191,2.427-1.615,3.31l-2.066,4.239c-4.131,8.368-6.197,15.167-6.197,20.393c0,3.637,0.988,6.127,2.965,7.47
			c0.566,0.424,1.431,0.636,2.597,0.636c1.165,0,2.542-0.415,4.132-1.246c1.588-0.828,3.107-1.967,4.555-3.416
			c1.448-1.448,2.799-3.133,4.052-5.06c1.253-1.923,2.34-3.979,3.257-6.17c1.942-4.626,2.915-8.722,2.915-12.291
			c0-6.108-1.148-10.611-3.443-13.506c-0.777-0.918-0.548-1.995,0.688-3.232c1.306-1.306,3.354-1.958,6.145-1.958
			c3.424,0,5.755,1.924,6.993,5.774c0.493,1.448,0.74,3.62,0.74,6.514c0,2.897-0.511,6.119-1.535,9.667
			c-1.024,3.55-2.41,6.957-4.159,10.224c-1.747,3.267-3.761,6.312-6.038,9.138c-2.278,2.826-4.67,5.279-7.177,7.363
			c-5.369,4.449-10.348,6.674-14.938,6.674c-7.876,0-11.813-5.086-11.813-15.256c0-2.33,0.212-4.607,0.636-6.832
			C50.195,80.578,45.702,85.742,40.881,89.997z"/>
		<path fill="#ED5A5A" d="M101.801,94.261c-0.794-0.776-1.42-1.668-1.879-2.675c-0.461-1.007-0.69-2.172-0.69-3.496
			s0.257-2.508,0.769-3.549c0.512-1.041,1.156-1.881,1.934-2.518c1.377-1.129,2.833-1.693,4.37-1.693s2.842,0.105,3.92,0.317
			c1.077,0.213,2.093,0.548,3.045,1.007c2.19,1.13,3.284,2.754,3.284,4.873c0,2.648-0.865,4.961-2.594,6.939
			c-1.625,1.837-3.312,2.842-5.059,3.018c-1.75,0.178-3.171,0.045-4.265-0.396C103.541,95.648,102.596,95.039,101.801,94.261z"/>
		<path fill="#ED5A5A" d="M125.934,80.074c0.142-3.072,0.653-6.012,1.538-8.82c0.882-2.807,2.066-5.526,3.548-8.156
			c1.483-2.632,3.222-5.121,5.218-7.47c1.994-2.349,4.157-4.405,6.488-6.172c5.05-3.778,10.152-5.667,15.31-5.667
			c6.038,0,10.063,2.489,12.076,7.468c0.706,1.695,1.042,3.7,1.006,6.012c-0.035,2.314-0.476,4.449-1.323,6.409
			c-0.848,1.96-2.023,3.744-3.523,5.35c-1.501,1.607-3.285,3.047-5.351,4.318c-2.065,1.27-4.316,2.348-6.753,3.23
			c-5.015,1.766-10.382,2.686-16.104,2.754c-0.142,0.496-0.229,1.236-0.264,2.227c-0.036,0.988,0.07,2.09,0.317,3.309
			c0.247,1.219,0.67,2.305,1.272,3.258c1.271,2.12,3.106,3.18,5.508,3.18c4.097,0,8.087-1.201,11.972-3.603
			c1.378-0.813,2.498-1.651,3.364-2.516c0.865-0.864,1.615-1.298,2.25-1.298c0.636,0,1.193,0.379,1.67,1.139
			c0.476,0.76,0.715,1.614,0.715,2.568c0,1.872-0.531,3.496-1.59,4.873c-4.449,4.45-11.07,6.676-19.863,6.676
			c-5.191,0-9.359-1.555-12.501-4.663C127.381,90.95,125.722,86.148,125.934,80.074z M156.869,50.834
			c-3.708,0-7.274,2.542-10.701,7.628c-2.896,4.378-5.226,9.569-6.991,15.573c5.897-0.6,11.019-2.932,15.362-6.993
			c3.99-3.813,5.986-7.469,5.986-10.965C160.525,52.581,159.306,50.834,156.869,50.834z"/>
		<path fill="#ED5A5A" d="M177,88.84c-0.882-0.917-1.598-2.094-2.145-3.522c-0.548-1.431-0.821-3.091-0.821-4.98
			c0-1.888,0.431-4.422,1.298-7.601c0.865-3.178,1.967-6.798,3.309-10.859l4.451-13.19c6.32-18.362,9.976-32.559,10.965-42.589
			c0.318-2.965,1.764-4.448,4.343-4.448c1.624,0,2.966,0.389,4.026,1.165c2.047,1.554,3.037,3.283,2.967,5.191
			c-0.072,1.908-0.406,4.23-1.007,6.966s-1.378,5.72-2.331,8.951c-0.953,3.232-2.048,6.649-3.283,10.25L191.46,55.68
			c-4.202,12.219-6.302,20.111-6.302,23.677c0,1.906,0.775,2.861,2.33,2.861c1.482,0,2.833-0.318,4.052-0.955
			c1.219-0.635,2.004-0.951,2.357-0.951c0.743,0,1.113,0.369,1.113,1.111c0,3.144-1.607,5.773-4.821,7.892
			c-2.154,1.449-4.123,2.173-5.906,2.173c-1.785,0-3.222-0.211-4.316-0.635C178.871,90.43,177.882,89.76,177,88.84z"/>
		<path fill="#ED5A5A" d="M207.46,92.461c-1.483-1.414-2.648-3.205-3.495-5.378c-0.849-2.171-1.291-4.739-1.326-7.706
			c-0.035-2.967,0.326-5.968,1.086-9.006c0.759-3.037,1.836-5.968,3.232-8.794c1.393-2.823,3.071-5.472,5.031-7.944
			s4.122-4.626,6.489-6.463c5.156-3.955,10.506-5.932,16.051-5.932c7.274,0,12.2,3.196,14.778,9.586
			c1.836,4.628,1.942,10.225,0.319,16.792c-1.484,6.04-4.204,11.584-8.159,16.633c-3.92,5.051-8.545,8.635-13.878,10.752
			c-2.684,1.06-5.323,1.59-7.919,1.59c-2.594,0-4.909-0.336-6.939-1.006C210.7,94.915,208.944,93.873,207.46,92.461z M217.578,66.77
			c-1.059,2.613-1.897,5.297-2.516,8.051c-0.618,2.756-0.91,5.359-0.875,7.814c0.035,2.455,0.415,4.379,1.139,5.773
			c0.724,1.396,1.899,2.092,3.524,2.092c1.622,0,3.222-0.557,4.793-1.668c1.571-1.113,3.099-2.586,4.582-4.424
			c1.483-1.836,2.878-3.954,4.186-6.356c1.306-2.401,2.453-4.907,3.442-7.522c2.153-5.685,3.196-10.734,3.125-15.149
			c0-3.884-0.795-6.356-2.382-7.417c-0.637-0.423-1.529-0.635-2.676-0.635s-2.462,0.522-3.946,1.563
			c-1.482,1.043-2.966,2.447-4.449,4.211c-1.483,1.767-2.913,3.833-4.291,6.198C219.855,61.667,218.638,64.157,217.578,66.77z"/>
		<path fill="#ED5A5A" d="M299.525,54.662c2.473-2.12,4.538-3.179,6.197-3.179c0.99,0,1.996,0.37,3.021,1.113
			c1.907,1.413,2.702,2.631,2.384,3.654c-0.105,0.39-0.266,0.849-0.477,1.377l-0.688,1.802c-0.496,1.413-1.024,2.701-1.59,3.868
			c-0.565,1.164-1.271,2.701-2.118,4.607c-5.969,14.197-9.756,23.68-11.363,28.446s-2.764,8.476-3.469,11.123
			c-1.625,5.862-2.438,10.081-2.438,12.661c0,3.672,0.203,6.1,0.61,7.283c0.405,1.182,0.546,2.021,0.424,2.516
			c-0.124,0.494-0.382,0.9-0.769,1.218c-0.776,0.636-1.766,0.954-2.967,0.954s-2.26-0.212-3.178-0.635
			c-0.92-0.424-1.749-1.096-2.489-2.014c-1.624-2.084-2.367-5.068-2.226-8.951c0.07-5.158,2.508-13.298,7.31-24.421l3.444-7.945
			c-2.861,4.378-5.299,7.487-7.311,9.322c-4.098,3.673-8.123,5.51-12.078,5.51c-6.037,0-10.03-3.143-11.971-9.43
			c-0.67-2.153-1.007-4.802-1.007-7.944c0-3.144,0.469-6.295,1.404-9.456c0.936-3.161,2.207-6.153,3.814-8.979
			c1.607-2.825,3.479-5.429,5.614-7.813c2.138-2.384,4.406-4.441,6.809-6.17c5.083-3.708,9.905-5.562,14.461-5.562
			S296.984,49.965,299.525,54.662z M272.299,95.025c3.638,0,7.822-3.549,12.554-10.646c4.874-7.346,8.281-15.344,10.225-23.997
			c-0.142-2.401-1.148-4.165-3.021-5.296c-0.635-0.389-1.598-0.583-2.885-0.583c-1.291,0-2.791,0.469-4.504,1.404
			c-1.715,0.936-3.355,2.198-4.926,3.787c-1.573,1.59-3.046,3.453-4.424,5.589c-1.377,2.137-2.578,4.407-3.602,6.805
			c-2.189,5.121-3.283,10.225-3.283,15.311C268.434,92.482,269.721,95.025,272.299,95.025z M299.049,55.086
			c-0.07,0-0.124,0.052-0.158,0.159L299.049,55.086z"/>
		<path fill="#ED5A5A" d="M361.24,89.455c0.812,0,1.218,0.406,1.218,1.217c0,3.073-1.519,5.651-4.556,7.734
			c-2.048,1.344-4.45,2.014-7.204,2.014c-2.26,0-3.991-0.531-5.19-1.59c-2.156-1.906-3.232-4.238-3.232-6.992
			c0-3.496,1.465-8.846,4.397-16.05c-5.438,7.345-9.253,12.228-11.442,14.646c-2.19,2.42-4.097,4.3-5.721,5.642
			c-3.531,2.896-6.727,4.344-9.588,4.344c-4.378,0-7.293-1.889-8.738-5.67c-0.426-1.163-0.637-2.496-0.637-3.998
			c0-1.501,0.255-3.178,0.768-5.032c0.512-1.854,1.174-3.788,1.986-5.8c0.813-2.013,1.695-4.078,2.649-6.197l2.859-6.356
			c3.672-8.159,5.032-12.996,4.078-14.515c-0.423-0.67-1.218-1.342-2.382-2.012c-0.424-0.247-0.636-0.68-0.636-1.298
			s0.254-1.208,0.768-1.774c0.511-0.565,1.174-1.059,1.985-1.482c1.73-0.813,3.462-1.219,5.191-1.219s3.047,0.185,3.947,0.556
			s1.633,0.84,2.198,1.403c1.165,1.167,1.748,2.455,1.748,3.868s-0.23,2.993-0.688,4.741c-0.459,1.748-1.06,3.647-1.803,5.694
			c-0.74,2.049-1.553,4.168-2.436,6.356c-2.436,5.722-4.078,9.501-4.926,11.336l-1.961,4.079c-1.094,2.438-1.643,4.149-1.643,5.139
			c0,0.99,0.16,1.688,0.478,2.092c0.317,0.406,0.892,0.609,1.722,0.609c0.829,0,1.792-0.389,2.887-1.166
			c1.095-0.775,2.296-1.818,3.602-3.125c1.307-1.306,2.666-2.816,4.08-4.527c1.412-1.713,2.788-3.488,4.131-5.324
			c2.649-3.603,4.59-6.498,5.826-8.688c7.487-13.243,11.479-20.163,11.972-20.763c1.13-1.518,2.286-2.278,3.47-2.278
			s2.217,0.132,3.1,0.396c0.882,0.266,1.643,0.646,2.277,1.139c1.482,1.095,1.96,2.19,1.43,3.284
			c-8.617,17.975-13.26,29.275-13.931,33.901c-0.177,1.59-0.266,2.685-0.266,3.284c0,2.684,0.813,4.027,2.438,4.027
			c1.518,0,2.772-0.274,3.761-0.822C360.215,89.729,360.886,89.455,361.24,89.455z"/>
		<path fill="#ED5A5A" d="M370.193,77.522c0.143-3.073,0.652-6.013,1.537-8.82c0.883-2.806,2.066-5.526,3.549-8.157
			c1.482-2.631,3.223-5.121,5.219-7.47c1.993-2.349,4.156-4.404,6.487-6.171c5.05-3.778,10.152-5.667,15.31-5.667
			c6.038,0,10.064,2.489,12.076,7.468c0.707,1.695,1.042,3.7,1.007,6.012c-0.034,2.313-0.476,4.449-1.323,6.409
			c-0.849,1.96-2.023,3.744-3.523,5.351c-1.502,1.607-3.285,3.046-5.351,4.317c-2.065,1.271-4.315,2.35-6.753,3.23
			c-5.016,1.766-10.382,2.686-16.104,2.756c-0.143,0.494-0.229,1.236-0.264,2.225c-0.037,0.988,0.069,2.092,0.316,3.31
			c0.246,1.219,0.67,2.306,1.271,3.259c1.271,2.119,3.106,3.178,5.509,3.178c4.097,0,8.087-1.201,11.972-3.602
			c1.378-0.813,2.498-1.65,3.364-2.516c0.864-0.865,1.614-1.299,2.25-1.299s1.192,0.381,1.67,1.139
			c0.476,0.761,0.715,1.615,0.715,2.57c0,1.871-0.53,3.496-1.59,4.873c-4.449,4.449-11.07,6.674-19.863,6.674
			c-5.19,0-9.358-1.553-12.501-4.662C371.641,88.398,369.981,83.597,370.193,77.522z M401.129,48.283
			c-3.708,0-7.274,2.542-10.701,7.628c-2.895,4.378-5.225,9.569-6.99,15.572c5.896-0.599,11.018-2.93,15.361-6.992
			c3.99-3.813,5.986-7.468,5.986-10.964C404.785,50.029,403.566,48.283,401.129,48.283z"/>
		<path fill="#ED5A5A" d="M456.857,48.696c-1.097,0-2.649,1.052-4.662,3.152c-2.014,2.101-3.762,4.017-5.244,5.747l-4.503,5.404
			l-8.687,11.071c-2.049,3.885-3.656,7.117-4.821,9.693l-2.859,6.145c-0.743,1.518-1.388,2.588-1.934,3.205
			c-0.548,0.617-1.291,0.928-2.226,0.928c-0.938,0-1.836-0.169-2.701-0.504c-0.866-0.336-1.616-0.768-2.252-1.299
			c-1.342-1.129-2.012-2.364-2.012-3.707c0-0.53,0.387-1.57,1.165-3.125l2.013-4.291c0.635-1.271,1.377-2.895,2.225-4.873
			l2.966-7.258c4.167-10.417,6.251-17.143,6.251-20.181c0-1.625-0.529-2.826-1.589-3.603l-1.06-0.74
			c-0.354-0.247-0.53-0.68-0.53-1.298s0.239-1.208,0.716-1.774c0.477-0.565,1.104-1.059,1.881-1.483
			c1.589-0.812,3.186-1.218,4.793-1.218c1.606,0,2.853,0.177,3.734,0.528c0.883,0.354,1.625,0.831,2.226,1.43
			c1.306,1.237,1.959,2.526,1.959,3.868c0,1.343-0.167,2.694-0.503,4.052c-0.336,1.361-0.76,2.738-1.271,4.132
			c-0.512,1.396-1.051,2.764-1.615,4.105c-0.565,1.342-1.078,2.508-1.536,3.497l-1.06,2.277c-0.282,0.564-0.354,0.742-0.213,0.53
			c3.92-5.438,6.498-8.934,7.735-10.489l3.708-4.448c2.719-3.18,4.854-5.281,6.41-6.305c3.143-2.118,5.614-3.177,7.416-3.177
			c1.799,0,3.318,0.229,4.555,0.688c1.235,0.46,2.313,1.113,3.23,1.96c1.941,1.801,2.914,4.098,2.914,6.887
			c0,2.79-0.637,5.704-1.908,8.739c-1.271,3.038-2.375,5.501-3.309,7.39c-0.938,1.89-1.83,3.807-2.677,5.748
			c-2.647,5.898-3.972,10.188-3.972,12.871c0,1.201,0.953,1.802,2.86,1.802c1.482,0,2.833-0.317,4.052-0.954
			s2.004-0.953,2.357-0.953c0.741,0,1.111,0.371,1.111,1.111c0,3.145-1.607,5.774-4.819,7.893c-2.154,1.449-4.132,2.174-5.934,2.174
			c-1.8,0-3.292-0.195-4.476-0.584s-2.234-1.006-3.152-1.854c-2.083-1.871-3.125-4.484-3.125-7.84c0-4.098,1.289-9.217,3.867-15.361
			c1.872-4.202,3.195-7.081,3.973-8.634l1.802-3.76c1.095-2.26,1.643-4.044,1.643-5.351
			C459.771,49.352,458.799,48.696,456.857,48.696z"/>
		<path fill="#ED5A5A" d="M508.188,86.012c1.023,0,1.536,0.688,1.536,2.065c0,1.166-0.354,2.296-1.061,3.39
			c-0.952,2.049-2.859,3.992-5.72,5.828c-3.249,2.084-6.516,3.125-9.801,3.125c-5.686,0-9.287-2.543-10.805-7.628
			c-1.802-6.038,0.899-18.839,8.104-38.404c-4.062-0.353-6.269-1.059-6.621-2.118c-0.105-0.319-0.159-0.663-0.159-1.034
			c0-0.371,0.167-0.802,0.503-1.298c0.337-0.494,0.77-0.97,1.299-1.429c1.236-1.024,2.489-1.537,3.76-1.537h4.186
			c3.814-8.934,6.533-14.02,8.158-15.256c0.775-0.564,1.642-0.847,2.595-0.847s1.748,0.125,2.384,0.371
			c0.635,0.247,1.201,0.601,1.694,1.059c1.13,1.059,1.696,2.243,1.696,3.549c0,0.708-0.212,1.519-0.636,2.437l-3.92,8.528h1.271
			c2.189,0,3.955-0.018,5.297-0.053l3.021-0.052c0.671-0.035,1.511-0.053,2.516-0.053c1.007,0,1.509,0.37,1.509,1.112
			c0,4.662-5.508,6.993-16.527,6.993h-0.423l-3.601,9.322c-4.063,11.017-6.094,18.735-6.094,23.149c0,1.235,0.283,2.197,0.849,2.887
			c0.564,0.688,1.624,1.033,3.179,1.033c1.553,0,2.965-0.265,4.236-0.795c1.272-0.53,2.385-1.122,3.338-1.775
			c0.953-0.652,1.774-1.244,2.463-1.773C507.101,86.275,507.692,86.012,508.188,86.012z"/>
	</g>
</g>
</svg>
